<svg width="15" height="19" viewBox="0 0 15 19" fill="none" xmlns="http://www.w3.org/2000/svg">
<path d="M2.42706 17.4071C2.4715 18.3014 3.20431 19 4.10144 19H10.8985C11.7956 19 12.5285 18.3015 12.5729 17.4071L13.5519 6.14706H1.448L2.42706 17.4071ZM9.17645 8.94118H10.2941V15.0882H9.17645V8.94118ZM6.94116 8.94118H8.05881V15.0882H6.94116V8.94118ZM4.70586 8.94118H5.82351V15.0882H4.70586V8.94118Z" fill="#8F0000"/>
<path d="M10.2941 2.79412V1.67647C10.2941 0.752102 9.54203 0 8.61758 0H6.38229C5.45792 0 4.70582 0.752102 4.70582 1.67647V2.79412H0.235229V5.02941H14.7646V2.79412H10.2941ZM5.82347 2.79412V1.67647C5.82347 1.36834 6.07419 1.11765 6.38229 1.11765H8.61758C8.92576 1.11765 9.17641 1.36834 9.17641 1.67647V2.79412H5.82347Z" fill="#8F0000"/>
</svg>
