<svg width="14" height="14" viewBox="0 0 14 14" fill="none" xmlns="http://www.w3.org/2000/svg">
<path d="M7 0C3.14005 0 0 3.14005 0 7C0 10.86 3.14005 14 7 14C10.86 14 14 10.86 14 7C14 3.14005 10.86 0 7 0Z" fill="#8ECCDA"/>
<path d="M10.5479 5.5166L6.75621 9.3082C6.64246 9.42195 6.49313 9.4792 6.34381 9.4792C6.19449 9.4792 6.04517 9.42195 5.93141 9.3082L4.03561 7.4124C3.80746 7.18436 3.80746 6.81564 4.03561 6.5876C4.26366 6.35945 4.63226 6.35945 4.86041 6.5876L6.34381 8.071L9.72311 4.6918C9.95116 4.46365 10.3198 4.46365 10.5479 4.6918C10.776 4.91985 10.776 5.28845 10.5479 5.5166Z" fill="#FAFAFA"/>
</svg>
