<svg width="14" height="14" viewBox="0 0 14 14" fill="none" xmlns="http://www.w3.org/2000/svg">
<path d="M7 0C3.15273 0 0 3.15273 0 7C0 10.8473 3.15273 14 7 14C10.8473 14 14 10.8473 14 7C14 3.15273 10.8473 0 7 0Z" fill="#AA1313"/>
<path d="M14 7C14 10.8473 10.8473 14 7 14V0C10.8473 0 14 3.15273 14 7Z" fill="#8F0000"/>
<path d="M8.15671 7.00002L10.4782 9.32153L9.32161 10.4781L7.0001 8.15664L4.67859 10.4781L3.52197 9.32153L5.84348 7.00002L3.52197 4.67851L4.67859 3.5219L7.0001 5.84341L9.32161 3.5219L10.4782 4.67851L8.15671 7.00002Z" fill="#E7E7E7"/>
<path d="M8.15661 7.00002L10.4781 9.32153L9.32151 10.4781L7 8.15664V5.84341L9.32151 3.5219L10.4781 4.67851L8.15661 7.00002Z" fill="#D3D3D8"/>
</svg>
