<svg  dispaly="none" xmlns="http://www.w3.org/2000/svg">
  <symbol id="plus">
  <path d="M7.28571 4.92857C7.16738 4.92857 7.07143 4.83262 7.07143 4.71429V0H4.92857V4.71429C4.92857 4.83262 4.83262 4.92857 4.71429 4.92857H0V7.07143H4.71429C4.83262 7.07143 4.92857 7.16738 4.92857 7.28571V12H7.07143V7.28571C7.07143 7.16738 7.16738 7.07143 7.28571 7.07143H12V4.92857H7.28571Z" fill="white"/>
  
  </symbol>
  
  <symbol id="bin">
  <path d="M2.42706 17.4071C2.4715 18.3014 3.20431 19 4.10144 19H10.8985C11.7956 19 12.5285 18.3015 12.5729 17.4071L13.5519 6.14706H1.448L2.42706 17.4071ZM9.17645 8.94118H10.2941V15.0882H9.17645V8.94118ZM6.94116 8.94118H8.05881V15.0882H6.94116V8.94118ZM4.70586 8.94118H5.82351V15.0882H4.70586V8.94118Z"/>
  <path d="M10.2941 2.79412V1.67647C10.2941 0.752102 9.54203 0 8.61758 0H6.38229C5.45792 0 4.70582 0.752102 4.70582 1.67647V2.79412H0.235229V5.02941H14.7646V2.79412H10.2941ZM5.82347 2.79412V1.67647C5.82347 1.36834 6.07419 1.11765 6.38229 1.11765H8.61758C8.92576 1.11765 9.17641 1.36834 9.17641 1.67647V2.79412H5.82347Z" />
  </symbol>

<symbol id="magnifier">
<g clip-path="url(#clip0)">
<path d="M62.576 49.1671C73.8085 37.9343 73.8083 19.6571 62.576 8.42434C51.3432 -2.80844 33.0662 -2.80844 21.8337 8.42434C12.3042 17.9538 10.8609 32.1266 17.5001 43.194C17.5001 43.194 17.9769 43.9941 17.3329 44.6377C13.6584 48.3119 2.63448 59.3361 2.63448 59.3361C-0.291106 62.2614 -0.987566 66.3521 1.60683 68.947L2.05353 69.3932C4.64792 71.9881 8.73885 71.2919 11.6642 68.3663C11.6642 68.3663 22.6648 57.3654 26.3317 53.6988C27.0067 53.0238 27.8065 53.5007 27.8065 53.5007C38.8737 60.1396 53.0465 58.6966 62.576 49.1671ZM27.1524 43.8482C18.8525 35.5483 18.8527 22.0436 27.1526 13.7437C35.4525 5.44408 48.9572 5.44386 57.2568 13.7437C65.5567 22.0434 65.5567 35.5483 57.2568 43.8482C48.9569 52.1476 35.4525 52.1476 27.1524 43.8482Z" fill="#8ECCDA"/>
<path d="M28.9905 27.0862C28.6042 27.0862 28.2115 27.0103 27.833 26.8504C26.3209 26.2104 25.6135 24.4657 26.2534 22.9534C30.2757 13.448 41.2812 8.98718 50.7864 13.0095C52.2985 13.6495 53.0059 15.3942 52.366 16.9065C51.7258 18.4188 49.9815 19.1258 48.4688 18.486C41.9836 15.7418 34.4742 18.7854 31.7302 25.2706C31.2501 26.4048 30.149 27.0862 28.9905 27.0862Z" fill="#8ECCDA"/>
</g>
<defs>
<clipPath id="clip0">
<rect width="71" height="71" fill="white"/>
</clipPath>
</defs>
 </symbol>

   <symbol id="delete">
 <path d="M4.88111 3.99974L7.8722 1.00852C7.95447 0.926179 7.99987 0.816325 8 0.699187C8 0.581984 7.9546 0.472 7.8722 0.389789L7.61008 0.12774C7.52767 0.0452033 7.41782 0 7.30055 0C7.18348 0 7.07363 0.0452033 6.99122 0.12774L4.00013 3.11876L1.00891 0.12774C0.926634 0.0452033 0.816715 0 0.699512 0C0.582439 0 0.47252 0.0452033 0.390244 0.12774L0.128 0.389789C-0.0426667 0.560455 -0.0426667 0.838049 0.128 1.00852L3.11915 3.99974L0.128 6.99083C0.0456585 7.0733 0.000325203 7.18316 0.000325203 7.30029C0.000325203 7.41743 0.0456585 7.52729 0.128 7.60969L0.390179 7.87174C0.472455 7.95421 0.582439 7.99948 0.699447 7.99948C0.81665 7.99948 0.926569 7.95421 1.00885 7.87174L4.00006 4.88065L6.99115 7.87174C7.07356 7.95421 7.18341 7.99948 7.30049 7.99948H7.30062C7.41776 7.99948 7.52761 7.95421 7.61002 7.87174L7.87213 7.60969C7.95441 7.52735 7.9998 7.41743 7.9998 7.30029C7.9998 7.18316 7.95441 7.0733 7.87213 6.9909L4.88111 3.99974Z" />
  </symbol>
</svg>